name ./resultDataOpenSim/trcMotMarkerGrf/sub10/grf-03-05.mot
datacolumns 19
datarows 15
range 0.50000000 0.55600000
endheader

                time	     ground_force_vx	     ground_force_vy	     ground_force_vz	     ground_force_px	     ground_force_py	     ground_force_pz	   l_ground_force_vx	   l_ground_force_vy	   l_ground_force_vz	   l_ground_force_px	   l_ground_force_py	   l_ground_force_pz	     ground_torque_x	     ground_torque_y	     ground_torque_z	   l_ground_torque_x	   l_ground_torque_y	   l_ground_torque_z	
          0.50000000	         24.44031816	        423.92274467	        -20.47502712	         -0.79038575	          0.00000000	          0.05616643	          0.00000000	          0.00000000	          0.00000000	          0.00000000	          0.00000000	          0.00000000	          0.00000000	          2.23514961	          0.00000000	          0.00000000	          0.00000000	          0.00000000	
          0.50400000	         28.25915632	        426.04074386	        -19.47832981	         -0.79017722	          0.00000000	          0.05626724	          0.00000000	          0.00000000	          0.00000000	          0.00000000	          0.00000000	          0.00000000	          0.00000000	          2.37450102	          0.00000000	          0.00000000	          0.00000000	          0.00000000	
          0.50800000	         32.18491789	        428.50893628	        -18.61462270	         -0.78993806	          0.00000000	          0.05638501	          0.00000000	          0.00000000	          0.00000000	          0.00000000	          0.00000000	          0.00000000	          0.00000000	          2.49760508	          0.00000000	          0.00000000	          0.00000000	          0.00000000	
          0.51200000	         35.82759836	        431.35052653	        -18.11187588	         -0.78958242	          0.00000000	          0.05651969	          0.00000000	          0.00000000	          0.00000000	          0.00000000	          0.00000000	          0.00000000	          0.00000000	          2.59379670	          0.00000000	          0.00000000	          0.00000000	          0.00000000	
          0.51600000	         38.96142906	        434.60055770	        -18.12183094	         -0.78906044	          0.00000000	          0.05667221	          0.00000000	          0.00000000	          0.00000000	          0.00000000	          0.00000000	          0.00000000	          0.00000000	          2.65602659	          0.00000000	          0.00000000	          0.00000000	          0.00000000	
          0.52000000	         41.56835289	        438.31317955	        -18.68514530	         -0.78835391	          0.00000000	          0.05684598	          0.00000000	          0.00000000	          0.00000000	          0.00000000	          0.00000000	          0.00000000	          0.00000000	          2.68236530	          0.00000000	          0.00000000	          0.00000000	          0.00000000	
          0.52400000	         43.82288315	        442.56103457	        -19.72656461	         -0.78748441	          0.00000000	          0.05704080	          0.00000000	          0.00000000	          0.00000000	          0.00000000	          0.00000000	          0.00000000	          0.00000000	          2.67706526	          0.00000000	          0.00000000	          0.00000000	          0.00000000	
          0.52800000	         46.02288376	        447.41851805	        -21.07888097	         -0.78650655	          0.00000000	          0.05725188	          0.00000000	          0.00000000	          0.00000000	          0.00000000	          0.00000000	          0.00000000	          0.00000000	          2.65084530	          0.00000000	          0.00000000	          0.00000000	          0.00000000	
          0.53200000	         48.48424597	        452.94165586	        -22.52450060	         -0.78547477	          0.00000000	          0.05747575	          0.00000000	          0.00000000	          0.00000000	          0.00000000	          0.00000000	          0.00000000	          0.00000000	          2.61988494	          0.00000000	          0.00000000	          0.00000000	          0.00000000	
          0.53600000	         51.43285508	        459.15917008	        -23.84435318	         -0.78442017	          0.00000000	          0.05771084	          0.00000000	          0.00000000	          0.00000000	          0.00000000	          0.00000000	          0.00000000	          0.00000000	          2.60325113	          0.00000000	          0.00000000	          0.00000000	          0.00000000	
          0.54000000	         54.92919854	        466.07760276	        -24.86612774	         -0.78333849	          0.00000000	          0.05795428	          0.00000000	          0.00000000	          0.00000000	          0.00000000	          0.00000000	          0.00000000	          0.00000000	          2.61908642	          0.00000000	          0.00000000	          0.00000000	          0.00000000	
          0.54400000	         58.84685886	        473.69176971	        -25.50324913	         -0.78218749	          0.00000000	          0.05820334	          0.00000000	          0.00000000	          0.00000000	          0.00000000	          0.00000000	          0.00000000	          0.00000000	          2.68050512	          0.00000000	          0.00000000	          0.00000000	          0.00000000	
          0.54800000	         62.90809919	        481.98632315	        -25.77698832	         -0.78089806	          0.00000000	          0.05846217	          0.00000000	          0.00000000	          0.00000000	          0.00000000	          0.00000000	          0.00000000	          0.00000000	          2.79237970	          0.00000000	          0.00000000	          0.00000000	          0.00000000	
          0.55200000	         66.76073366	        490.92867981	        -25.81633903	         -0.77939294	          0.00000000	          0.05873746	          0.00000000	          0.00000000	          0.00000000	          0.00000000	          0.00000000	          0.00000000	          0.00000000	          2.94991999	          0.00000000	          0.00000000	          0.00000000	          0.00000000	
          0.55600000	         70.06842580	        500.47001540	        -25.83397436	         -0.77760028	          0.00000000	          0.05903206	          0.00000000	          0.00000000	          0.00000000	          0.00000000	          0.00000000	          0.00000000	          0.00000000	          3.13934414	          0.00000000	          0.00000000	          0.00000000	          0.00000000	
